<?xml version="1.0" standalone="yes"?>

<svg version="1.1" viewBox="0.0 0.0 116.0 174.0" fill="none" stroke="none" stroke-linecap="square" stroke-miterlimit="10" xmlns="http://www.w3.org/2000/svg" xmlns:xlink="http://www.w3.org/1999/xlink"><clipPath id="p.0"><path d="m0 0l116.0 0l0 174.0l-116.0 0l0 -174.0z" clip-rule="nonzero"></path></clipPath><g clip-path="url(#p.0)"><path fill="#000000" fill-opacity="0.0" d="m0 0l116.90026 0l0 174.23885l-116.90026 0z" fill-rule="nonzero"></path><path fill="#efefef" d="m83.71916 73.437004l-10.197899 10.240158l-30.593704 0l-10.197899 -10.240158l10.197899 -10.240154l30.593704 0z" fill-rule="nonzero"></path><path stroke="#b7b7b7" stroke-width="2.0" stroke-linejoin="round" stroke-linecap="butt" d="m83.71916 73.437004l-10.197899 10.240158l-30.593704 0l-10.197899 -10.240158l10.197899 -10.240154l30.593704 0z" fill-rule="nonzero"></path><path fill="#efefef" d="m86.468506 19.768986l10.240158 10.197899l0 30.5937l-10.240158 10.197899l-10.240158 -10.197899l0 -30.5937z" fill-rule="nonzero"></path><path stroke="#b7b7b7" stroke-width="2.0" stroke-linejoin="round" stroke-linecap="butt" d="m86.468506 19.768986l10.240158 10.197899l0 30.5937l-10.240158 10.197899l-10.240158 -10.197899l0 -30.5937z" fill-rule="nonzero"></path><path fill="#efefef" d="m30.431759 19.768986l10.240158 10.197899l0 30.5937l-10.240158 10.197899l-10.240158 -10.197899l0 -30.5937z" fill-rule="nonzero"></path><path stroke="#b7b7b7" stroke-width="2.0" stroke-linejoin="round" stroke-linecap="butt" d="m30.431759 19.768986l10.240158 10.197899l0 30.5937l-10.240158 10.197899l-10.240158 -10.197899l0 -30.5937z" fill-rule="nonzero"></path><path fill="#efefef" d="m83.71916 16.953028l-10.197899 10.240158l-30.593704 0l-10.197899 -10.240158l10.197899 -10.240158l30.593704 0z" fill-rule="nonzero"></path><path stroke="#b7b7b7" stroke-width="2.0" stroke-linejoin="round" stroke-linecap="butt" d="m83.71916 16.953028l-10.197899 10.240158l-30.593704 0l-10.197899 -10.240158l10.197899 -10.240158l30.593704 0z" fill-rule="nonzero"></path><path fill="#000000" d="m83.71916 157.28477l-10.197899 10.240158l-30.593704 0l-10.197899 -10.240158l10.197899 -10.240158l30.593704 0z" fill-rule="nonzero"></path><path stroke="#b7b7b7" stroke-width="2.0" stroke-linejoin="round" stroke-linecap="butt" d="m83.71916 157.28477l-10.197899 10.240158l-30.593704 0l-10.197899 -10.240158l10.197899 -10.240158l30.593704 0z" fill-rule="nonzero"></path><path fill="#efefef" d="m86.468506 103.61676l10.240158 10.197899l0 30.593697l-10.240158 10.1979065l-10.240158 -10.1979065l0 -30.593697z" fill-rule="nonzero"></path><path stroke="#b7b7b7" stroke-width="2.0" stroke-linejoin="round" stroke-linecap="butt" d="m86.468506 103.61676l10.240158 10.197899l0 30.593697l-10.240158 10.1979065l-10.240158 -10.1979065l0 -30.593697z" fill-rule="nonzero"></path><path fill="#000000" d="m30.431759 103.61676l10.240158 10.197899l0 30.593697l-10.240158 10.1979065l-10.240158 -10.1979065l0 -30.593697z" fill-rule="nonzero"></path><path stroke="#b7b7b7" stroke-width="2.0" stroke-linejoin="round" stroke-linecap="butt" d="m30.431759 103.61676l10.240158 10.197899l0 30.593697l-10.240158 10.1979065l-10.240158 -10.1979065l0 -30.593697z" fill-rule="nonzero"></path><path fill="#000000" d="m83.71916 100.80079l-10.197899 10.240158l-30.593704 0l-10.197899 -10.240158l10.197899 -10.240158l30.593704 0z" fill-rule="nonzero"></path><path stroke="#b7b7b7" stroke-width="2.0" stroke-linejoin="round" stroke-linecap="butt" d="m83.71916 100.80079l-10.197899 10.240158l-30.593704 0l-10.197899 -10.240158l10.197899 -10.240158l30.593704 0z" fill-rule="nonzero"></path></g></svg>

