<?xml version="1.0" standalone="yes"?>

<svg version="1.1" viewBox="0.0 0.0 126.0 177.0" fill="none" stroke="none" stroke-linecap="square" stroke-miterlimit="10" xmlns="http://www.w3.org/2000/svg" xmlns:xlink="http://www.w3.org/1999/xlink"><clipPath id="p.0"><path d="m0 0l126.0 0l0 177.0l-126.0 0l0 -177.0z" clip-rule="nonzero"></path></clipPath><g clip-path="url(#p.0)"><path fill="#000000" fill-opacity="0.0" d="m0 0l126.88714 0l0 177.56955l-126.88714 0z" fill-rule="nonzero"></path><path fill="#000000" d="m88.7126 88.33596l-10.197899 10.240158l-30.593704 0l-10.197899 -10.240158l10.197899 -10.240158l30.593704 0z" fill-rule="nonzero"></path><path stroke="#b7b7b7" stroke-width="2.0" stroke-linejoin="round" stroke-linecap="butt" d="m88.7126 88.33596l-10.197899 10.240158l-30.593704 0l-10.197899 -10.240158l10.197899 -10.240158l30.593704 0z" fill-rule="nonzero"></path><path fill="#efefef" d="m91.461945 91.59969l10.240158 10.1979065l0 30.593697l-10.240158 10.1979065l-10.240158 -10.1979065l0 -30.593697z" fill-rule="nonzero"></path><path stroke="#b7b7b7" stroke-width="2.0" stroke-linejoin="round" stroke-linecap="butt" d="m91.461945 91.59969l10.240158 10.1979065l0 30.593697l-10.240158 10.1979065l-10.240158 -10.1979065l0 -30.593697z" fill-rule="nonzero"></path><path fill="#000000" d="m35.425198 91.978745l10.240158 10.197899l0 30.593697l-10.240158 10.1979065l-10.240158 -10.1979065l0 -30.593697z" fill-rule="nonzero"></path><path stroke="#b7b7b7" stroke-width="2.0" stroke-linejoin="round" stroke-linecap="butt" d="m35.425198 91.978745l10.240158 10.197899l0 30.593697l-10.240158 10.1979065l-10.240158 -10.1979065l0 -30.593697z" fill-rule="nonzero"></path><path fill="#000000" d="m88.7126 145.71654l-10.197899 10.240158l-30.593704 0l-10.197899 -10.240158l10.197899 -10.240158l30.593704 0z" fill-rule="nonzero"></path><path stroke="#b7b7b7" stroke-width="2.0" stroke-linejoin="round" stroke-linecap="butt" d="m88.7126 145.71654l-10.197899 10.240158l-30.593704 0l-10.197899 -10.240158l10.197899 -10.240158l30.593704 0z" fill-rule="nonzero"></path><path fill="#000000" d="m91.461945 34.667934l10.240158 10.197903l0 30.593697l-10.240158 10.1979065l-10.240158 -10.1979065l0 -30.593697z" fill-rule="nonzero"></path><path stroke="#b7b7b7" stroke-width="2.0" stroke-linejoin="round" stroke-linecap="butt" d="m91.461945 34.667934l10.240158 10.197903l0 30.593697l-10.240158 10.1979065l-10.240158 -10.1979065l0 -30.593697z" fill-rule="nonzero"></path><path fill="#000000" d="m35.425198 34.667934l10.240158 10.197903l0 30.593697l-10.240158 10.1979065l-10.240158 -10.1979065l0 -30.593697z" fill-rule="nonzero"></path><path stroke="#b7b7b7" stroke-width="2.0" stroke-linejoin="round" stroke-linecap="butt" d="m35.425198 34.667934l10.240158 10.197903l0 30.593697l-10.240158 10.1979065l-10.240158 -10.1979065l0 -30.593697z" fill-rule="nonzero"></path><path fill="#efefef" d="m88.7126 31.851978l-10.197899 10.240158l-30.593704 0l-10.197899 -10.240158l10.197899 -10.240158l30.593704 0z" fill-rule="nonzero"></path><path stroke="#b7b7b7" stroke-width="2.0" stroke-linejoin="round" stroke-linecap="butt" d="m88.7126 31.851978l-10.197899 10.240158l-30.593704 0l-10.197899 -10.240158l10.197899 -10.240158l30.593704 0z" fill-rule="nonzero"></path></g></svg>

