<?xml version="1.0" standalone="yes"?>

<svg version="1.1" viewBox="0.0 0.0 222.0 177.0" fill="none" stroke="none" stroke-linecap="square" stroke-miterlimit="10" xmlns="http://www.w3.org/2000/svg" xmlns:xlink="http://www.w3.org/1999/xlink"><clipPath id="p.0"><path d="m0 0l222.0 0l0 177.0l-222.0 0l0 -177.0z" clip-rule="nonzero"></path></clipPath><g clip-path="url(#p.0)"><path fill="#000000" fill-opacity="0.0" d="m0 0l222.92914 0l0 177.19948l-222.92914 0z" fill-rule="nonzero"></path><path fill="#000000" d="m91.884514 88.15092l-10.197899 10.240158l-30.5937 0l-10.197899 -10.240158l10.197899 -10.240158l30.5937 0z" fill-rule="nonzero"></path><path stroke="#b7b7b7" stroke-width="2.0" stroke-linejoin="round" stroke-linecap="butt" d="m91.884514 88.15092l-10.197899 10.240158l-30.5937 0l-10.197899 -10.240158l10.197899 -10.240158l30.5937 0z" fill-rule="nonzero"></path><path fill="#000000" d="m94.63386 91.41466l10.240158 10.197899l0 30.593697l-10.240158 10.1979065l-10.240158 -10.1979065l0 -30.593697z" fill-rule="nonzero"></path><path stroke="#b7b7b7" stroke-width="2.0" stroke-linejoin="round" stroke-linecap="butt" d="m94.63386 91.41466l10.240158 10.197899l0 30.593697l-10.240158 10.1979065l-10.240158 -10.1979065l0 -30.593697z" fill-rule="nonzero"></path><path fill="#000000" d="m38.597115 91.79371l10.240154 10.197899l0 30.593704l-10.240154 10.197891l-10.240158 -10.197891l0 -30.593704z" fill-rule="nonzero"></path><path stroke="#b7b7b7" stroke-width="2.0" stroke-linejoin="round" stroke-linecap="butt" d="m38.597115 91.79371l10.240154 10.197899l0 30.593704l-10.240154 10.197891l-10.240158 -10.197891l0 -30.593704z" fill-rule="nonzero"></path><path fill="#000000" d="m91.884514 145.5315l-10.197899 10.240158l-30.5937 0l-10.197899 -10.240158l10.197899 -10.240158l30.5937 0z" fill-rule="nonzero"></path><path stroke="#b7b7b7" stroke-width="2.0" stroke-linejoin="round" stroke-linecap="butt" d="m91.884514 145.5315l-10.197899 10.240158l-30.5937 0l-10.197899 -10.240158l10.197899 -10.240158l30.5937 0z" fill-rule="nonzero"></path><path fill="#efefef" d="m94.63386 34.482895l10.240158 10.197903l0 30.5937l-10.240158 10.197899l-10.240158 -10.197899l0 -30.5937z" fill-rule="nonzero"></path><path stroke="#b7b7b7" stroke-width="2.0" stroke-linejoin="round" stroke-linecap="butt" d="m94.63386 34.482895l10.240158 10.197903l0 30.5937l-10.240158 10.197899l-10.240158 -10.197899l0 -30.5937z" fill-rule="nonzero"></path><path fill="#000000" d="m38.597115 34.482895l10.240154 10.197903l0 30.5937l-10.240154 10.197899l-10.240158 -10.197899l0 -30.5937z" fill-rule="nonzero"></path><path stroke="#b7b7b7" stroke-width="2.0" stroke-linejoin="round" stroke-linecap="butt" d="m38.597115 34.482895l10.240154 10.197903l0 30.5937l-10.240154 10.197899l-10.240158 -10.197899l0 -30.5937z" fill-rule="nonzero"></path><path fill="#000000" d="m91.884514 31.666939l-10.197899 10.240158l-30.5937 0l-10.197899 -10.240158l10.197899 -10.240158l30.5937 0z" fill-rule="nonzero"></path><path stroke="#b7b7b7" stroke-width="2.0" stroke-linejoin="round" stroke-linecap="butt" d="m91.884514 31.666939l-10.197899 10.240158l-30.5937 0l-10.197899 -10.240158l10.197899 -10.240158l30.5937 0z" fill-rule="nonzero"></path><path fill="#efefef" d="m181.58267 88.15092l-10.197891 10.240158l-30.593704 0l-10.1979065 -10.240158l10.1979065 -10.240158l30.593704 0z" fill-rule="nonzero"></path><path stroke="#b7b7b7" stroke-width="2.0" stroke-linejoin="round" stroke-linecap="butt" d="m181.58267 88.15092l-10.197891 10.240158l-30.593704 0l-10.1979065 -10.240158l10.1979065 -10.240158l30.593704 0z" fill-rule="nonzero"></path><path fill="#efefef" d="m184.33202 91.41466l10.240158 10.197899l0 30.593697l-10.240158 10.1979065l-10.240158 -10.1979065l0 -30.593697z" fill-rule="nonzero"></path><path stroke="#b7b7b7" stroke-width="2.0" stroke-linejoin="round" stroke-linecap="butt" d="m184.33202 91.41466l10.240158 10.197899l0 30.593697l-10.240158 10.1979065l-10.240158 -10.1979065l0 -30.593697z" fill-rule="nonzero"></path><path fill="#efefef" d="m128.29527 91.79371l10.240158 10.197899l0 30.593704l-10.240158 10.197891l-10.240158 -10.197891l0 -30.593704z" fill-rule="nonzero"></path><path stroke="#b7b7b7" stroke-width="2.0" stroke-linejoin="round" stroke-linecap="butt" d="m128.29527 91.79371l10.240158 10.197899l0 30.593704l-10.240158 10.197891l-10.240158 -10.197891l0 -30.593704z" fill-rule="nonzero"></path><path fill="#efefef" d="m181.58267 145.5315l-10.197891 10.240158l-30.593704 0l-10.1979065 -10.240158l10.1979065 -10.240158l30.593704 0z" fill-rule="nonzero"></path><path stroke="#b7b7b7" stroke-width="2.0" stroke-linejoin="round" stroke-linecap="butt" d="m181.58267 145.5315l-10.197891 10.240158l-30.593704 0l-10.1979065 -10.240158l10.1979065 -10.240158l30.593704 0z" fill-rule="nonzero"></path><path fill="#000000" d="m184.33202 34.482895l10.240158 10.197903l0 30.5937l-10.240158 10.197899l-10.240158 -10.197899l0 -30.5937z" fill-rule="nonzero"></path><path stroke="#b7b7b7" stroke-width="2.0" stroke-linejoin="round" stroke-linecap="butt" d="m184.33202 34.482895l10.240158 10.197903l0 30.5937l-10.240158 10.197899l-10.240158 -10.197899l0 -30.5937z" fill-rule="nonzero"></path><path fill="#efefef" d="m128.29527 34.482895l10.240158 10.197903l0 30.5937l-10.240158 10.197899l-10.240158 -10.197899l0 -30.5937z" fill-rule="nonzero"></path><path stroke="#b7b7b7" stroke-width="2.0" stroke-linejoin="round" stroke-linecap="butt" d="m128.29527 34.482895l10.240158 10.197903l0 30.5937l-10.240158 10.197899l-10.240158 -10.197899l0 -30.5937z" fill-rule="nonzero"></path><path fill="#efefef" d="m181.58267 31.666939l-10.197891 10.240158l-30.593704 0l-10.1979065 -10.240158l10.1979065 -10.240158l30.593704 0z" fill-rule="nonzero"></path><path stroke="#b7b7b7" stroke-width="2.0" stroke-linejoin="round" stroke-linecap="butt" d="m181.58267 31.666939l-10.197891 10.240158l-30.593704 0l-10.1979065 -10.240158l10.1979065 -10.240158l30.593704 0z" fill-rule="nonzero"></path></g></svg>

