<?xml version="1.0" standalone="yes"?>

<svg version="1.1" viewBox="0.0 0.0 222.0 177.0" fill="none" stroke="none" stroke-linecap="square" stroke-miterlimit="10" xmlns="http://www.w3.org/2000/svg" xmlns:xlink="http://www.w3.org/1999/xlink"><clipPath id="p.0"><path d="m0 0l222.0 0l0 177.0l-222.0 0l0 -177.0z" clip-rule="nonzero"></path></clipPath><g clip-path="url(#p.0)"><path fill="#000000" fill-opacity="0.0" d="m0 0l222.92914 0l0 177.19948l-222.92914 0z" fill-rule="nonzero"></path><path fill="#efefef" d="m89.37795 74.91732l-10.197899 10.240158l-30.5937 0l-10.197903 -10.240158l10.197903 -10.240158l30.5937 0z" fill-rule="nonzero"></path><path stroke="#b7b7b7" stroke-width="2.0" stroke-linejoin="round" stroke-linecap="butt" d="m89.37795 74.91732l-10.197899 10.240158l-30.5937 0l-10.197903 -10.240158l10.197903 -10.240158l30.5937 0z" fill-rule="nonzero"></path><path fill="#efefef" d="m92.1273 21.2493l10.240158 10.197901l0 30.5937l-10.240158 10.197899l-10.240158 -10.197899l0 -30.5937z" fill-rule="nonzero"></path><path stroke="#b7b7b7" stroke-width="2.0" stroke-linejoin="round" stroke-linecap="butt" d="m92.1273 21.2493l10.240158 10.197901l0 30.5937l-10.240158 10.197899l-10.240158 -10.197899l0 -30.5937z" fill-rule="nonzero"></path><path fill="#efefef" d="m36.09055 21.2493l10.240158 10.197901l0 30.5937l-10.240158 10.197899l-10.240156 -10.197899l0 -30.5937z" fill-rule="nonzero"></path><path stroke="#b7b7b7" stroke-width="2.0" stroke-linejoin="round" stroke-linecap="butt" d="m36.09055 21.2493l10.240158 10.197901l0 30.5937l-10.240158 10.197899l-10.240156 -10.197899l0 -30.5937z" fill-rule="nonzero"></path><path fill="#efefef" d="m89.37795 18.433342l-10.197899 10.240158l-30.5937 0l-10.197903 -10.240158l10.197903 -10.240157l30.5937 0z" fill-rule="nonzero"></path><path stroke="#b7b7b7" stroke-width="2.0" stroke-linejoin="round" stroke-linecap="butt" d="m89.37795 18.433342l-10.197899 10.240158l-30.5937 0l-10.197903 -10.240158l10.197903 -10.240157l30.5937 0z" fill-rule="nonzero"></path><path fill="#efefef" d="m89.37795 158.76509l-10.197899 10.240158l-30.5937 0l-10.197903 -10.240158l10.197903 -10.240158l30.5937 0z" fill-rule="nonzero"></path><path stroke="#b7b7b7" stroke-width="2.0" stroke-linejoin="round" stroke-linecap="butt" d="m89.37795 158.76509l-10.197899 10.240158l-30.5937 0l-10.197903 -10.240158l10.197903 -10.240158l30.5937 0z" fill-rule="nonzero"></path><path fill="#efefef" d="m92.1273 105.09707l10.240158 10.197899l0 30.593704l-10.240158 10.1979065l-10.240158 -10.1979065l0 -30.593704z" fill-rule="nonzero"></path><path stroke="#b7b7b7" stroke-width="2.0" stroke-linejoin="round" stroke-linecap="butt" d="m92.1273 105.09707l10.240158 10.197899l0 30.593704l-10.240158 10.1979065l-10.240158 -10.1979065l0 -30.593704z" fill-rule="nonzero"></path><path fill="#efefef" d="m36.09055 105.09707l10.240158 10.197899l0 30.593704l-10.240158 10.1979065l-10.240156 -10.1979065l0 -30.593704z" fill-rule="nonzero"></path><path stroke="#b7b7b7" stroke-width="2.0" stroke-linejoin="round" stroke-linecap="butt" d="m36.09055 105.09707l10.240158 10.197899l0 30.593704l-10.240158 10.1979065l-10.240156 -10.1979065l0 -30.593704z" fill-rule="nonzero"></path><path fill="#efefef" d="m89.37795 102.28111l-10.197899 10.240158l-30.5937 0l-10.197903 -10.240158l10.197903 -10.240158l30.5937 0z" fill-rule="nonzero"></path><path stroke="#b7b7b7" stroke-width="2.0" stroke-linejoin="round" stroke-linecap="butt" d="m89.37795 102.28111l-10.197899 10.240158l-30.5937 0l-10.197903 -10.240158l10.197903 -10.240158l30.5937 0z" fill-rule="nonzero"></path><path fill="#efefef" d="m184.0884 74.91732l-10.1979065 10.240158l-30.593704 0l-10.197891 -10.240158l10.197891 -10.240158l30.593704 0z" fill-rule="nonzero"></path><path stroke="#b7b7b7" stroke-width="2.0" stroke-linejoin="round" stroke-linecap="butt" d="m184.0884 74.91732l-10.1979065 10.240158l-30.593704 0l-10.197891 -10.240158l10.197891 -10.240158l30.593704 0z" fill-rule="nonzero"></path><path fill="#000000" d="m186.83774 21.2493l10.240158 10.197901l0 30.5937l-10.240158 10.197899l-10.240158 -10.197899l0 -30.5937z" fill-rule="nonzero"></path><path stroke="#b7b7b7" stroke-width="2.0" stroke-linejoin="round" stroke-linecap="butt" d="m186.83774 21.2493l10.240158 10.197901l0 30.5937l-10.240158 10.197899l-10.240158 -10.197899l0 -30.5937z" fill-rule="nonzero"></path><path fill="#efefef" d="m130.80098 21.2493l10.240158 10.197901l0 30.5937l-10.240158 10.197899l-10.24015 -10.197899l0 -30.5937z" fill-rule="nonzero"></path><path stroke="#b7b7b7" stroke-width="2.0" stroke-linejoin="round" stroke-linecap="butt" d="m130.80098 21.2493l10.240158 10.197901l0 30.5937l-10.240158 10.197899l-10.24015 -10.197899l0 -30.5937z" fill-rule="nonzero"></path><path fill="#efefef" d="m184.0884 18.433342l-10.1979065 10.240158l-30.593704 0l-10.197891 -10.240158l10.197891 -10.240157l30.593704 0z" fill-rule="nonzero"></path><path stroke="#b7b7b7" stroke-width="2.0" stroke-linejoin="round" stroke-linecap="butt" d="m184.0884 18.433342l-10.1979065 10.240158l-30.593704 0l-10.197891 -10.240158l10.197891 -10.240157l30.593704 0z" fill-rule="nonzero"></path><path fill="#efefef" d="m184.0884 158.76509l-10.1979065 10.240158l-30.593704 0l-10.197891 -10.240158l10.197891 -10.240158l30.593704 0z" fill-rule="nonzero"></path><path stroke="#b7b7b7" stroke-width="2.0" stroke-linejoin="round" stroke-linecap="butt" d="m184.0884 158.76509l-10.1979065 10.240158l-30.593704 0l-10.197891 -10.240158l10.197891 -10.240158l30.593704 0z" fill-rule="nonzero"></path><path fill="#efefef" d="m186.83774 105.09707l10.240158 10.197899l0 30.593704l-10.240158 10.1979065l-10.240158 -10.1979065l0 -30.593704z" fill-rule="nonzero"></path><path stroke="#b7b7b7" stroke-width="2.0" stroke-linejoin="round" stroke-linecap="butt" d="m186.83774 105.09707l10.240158 10.197899l0 30.593704l-10.240158 10.1979065l-10.240158 -10.1979065l0 -30.593704z" fill-rule="nonzero"></path><path fill="#efefef" d="m130.80098 105.09707l10.240158 10.197899l0 30.593704l-10.240158 10.1979065l-10.24015 -10.1979065l0 -30.593704z" fill-rule="nonzero"></path><path stroke="#b7b7b7" stroke-width="2.0" stroke-linejoin="round" stroke-linecap="butt" d="m130.80098 105.09707l10.240158 10.197899l0 30.593704l-10.240158 10.1979065l-10.24015 -10.1979065l0 -30.593704z" fill-rule="nonzero"></path><path fill="#efefef" d="m184.0884 102.28111l-10.1979065 10.240158l-30.593704 0l-10.197891 -10.240158l10.197891 -10.240158l30.593704 0z" fill-rule="nonzero"></path><path stroke="#b7b7b7" stroke-width="2.0" stroke-linejoin="round" stroke-linecap="butt" d="m184.0884 102.28111l-10.1979065 10.240158l-30.593704 0l-10.197891 -10.240158l10.197891 -10.240158l30.593704 0z" fill-rule="nonzero"></path></g></svg>

